<mxfile host="app.diagrams.net" modified="2024-05-24T07:21:36.337Z" agent="Mozilla/5.0 (Windows NT 10.0; Win64; x64) AppleWebKit/537.36 (KHTML, like Gecko) Chrome/125.0.0.0 Safari/537.36 Edg/125.0.0.0" etag="phlpqpKnPaksoJw_gIH6" version="24.4.6" type="github">
  <diagram name="Page-1" id="6133507b-19e7-1e82-6fc7-422aa6c4b21f">
    <mxGraphModel dx="1615" dy="1153" grid="1" gridSize="10" guides="1" tooltips="1" connect="1" arrows="1" fold="1" page="1" pageScale="1" pageWidth="1100" pageHeight="850" background="none" math="0" shadow="0">
      <root>
        <mxCell id="0" />
        <mxCell id="1" parent="0" />
        <mxCell id="dgP6T1olhx-0nWLenfBv-61" value="" style="edgeStyle=orthogonalEdgeStyle;rounded=0;orthogonalLoop=1;jettySize=auto;html=1;endSize=10;endArrow=open;endFill=0;" edge="1" parent="1" source="235556782a83e6d0-1" target="b94bc138ca980ef-1">
          <mxGeometry relative="1" as="geometry" />
        </mxCell>
        <mxCell id="dgP6T1olhx-0nWLenfBv-87" value="1" style="edgeLabel;html=1;align=center;verticalAlign=middle;resizable=0;points=[];" vertex="1" connectable="0" parent="dgP6T1olhx-0nWLenfBv-61">
          <mxGeometry x="-0.3173" y="-5" relative="1" as="geometry">
            <mxPoint y="11" as="offset" />
          </mxGeometry>
        </mxCell>
        <mxCell id="dgP6T1olhx-0nWLenfBv-88" value="1" style="edgeLabel;html=1;align=center;verticalAlign=middle;resizable=0;points=[];" vertex="1" connectable="0" parent="dgP6T1olhx-0nWLenfBv-61">
          <mxGeometry x="0.5" y="-3" relative="1" as="geometry">
            <mxPoint x="2" y="7" as="offset" />
          </mxGeometry>
        </mxCell>
        <mxCell id="235556782a83e6d0-1" value="Logger" style="swimlane;html=1;fontStyle=1;align=center;verticalAlign=top;childLayout=stackLayout;horizontal=1;startSize=26;horizontalStack=0;resizeParent=1;resizeLast=0;collapsible=1;marginBottom=0;swimlaneFillColor=#ffffff;rounded=0;shadow=0;comic=0;labelBackgroundColor=none;strokeWidth=1;fillColor=none;fontFamily=Verdana;fontSize=12" parent="1" vertex="1">
          <mxGeometry x="145" y="456" width="180" height="88" as="geometry">
            <mxRectangle x="110" y="400" width="80" height="30" as="alternateBounds" />
          </mxGeometry>
        </mxCell>
        <mxCell id="235556782a83e6d0-2" value="- log_dir: string" style="text;html=1;strokeColor=none;fillColor=none;align=left;verticalAlign=top;spacingLeft=4;spacingRight=4;whiteSpace=wrap;overflow=hidden;rotatable=0;points=[[0,0.5],[1,0.5]];portConstraint=eastwest;" parent="235556782a83e6d0-1" vertex="1">
          <mxGeometry y="26" width="180" height="26" as="geometry" />
        </mxCell>
        <mxCell id="235556782a83e6d0-6" value="" style="line;html=1;strokeWidth=1;fillColor=none;align=left;verticalAlign=middle;spacingTop=-1;spacingLeft=3;spacingRight=3;rotatable=0;labelPosition=right;points=[];portConstraint=eastwest;" parent="235556782a83e6d0-1" vertex="1">
          <mxGeometry y="52" width="180" height="8" as="geometry" />
        </mxCell>
        <mxCell id="235556782a83e6d0-7" value="+ write_log(string, int32): void" style="text;html=1;strokeColor=none;fillColor=none;align=left;verticalAlign=top;spacingLeft=4;spacingRight=4;whiteSpace=wrap;overflow=hidden;rotatable=0;points=[[0,0.5],[1,0.5]];portConstraint=eastwest;" parent="235556782a83e6d0-1" vertex="1">
          <mxGeometry y="60" width="180" height="28" as="geometry" />
        </mxCell>
        <mxCell id="78961159f06e98e8-17" value="Blackboard" style="swimlane;html=1;fontStyle=1;align=center;verticalAlign=top;childLayout=stackLayout;horizontal=1;startSize=26;horizontalStack=0;resizeParent=1;resizeLast=0;collapsible=1;marginBottom=0;swimlaneFillColor=#ffffff;rounded=0;shadow=0;comic=0;labelBackgroundColor=none;strokeWidth=1;fillColor=none;fontFamily=Verdana;fontSize=12" parent="1" vertex="1">
          <mxGeometry x="828.19" y="19" width="250" height="242" as="geometry" />
        </mxCell>
        <mxCell id="dgP6T1olhx-0nWLenfBv-8" value="- bb_name: char[32]" style="text;html=1;strokeColor=none;fillColor=none;align=left;verticalAlign=top;spacingLeft=4;spacingRight=4;whiteSpace=wrap;overflow=hidden;rotatable=0;points=[[0,0.5],[1,0.5]];portConstraint=eastwest;" vertex="1" parent="78961159f06e98e8-17">
          <mxGeometry y="26" width="250" height="26" as="geometry" />
        </mxCell>
        <mxCell id="dgP6T1olhx-0nWLenfBv-41" value="- bb_msg_validy: int32" style="text;html=1;strokeColor=none;fillColor=none;align=left;verticalAlign=top;spacingLeft=4;spacingRight=4;whiteSpace=wrap;overflow=hidden;rotatable=0;points=[[0,0.5],[1,0.5]];portConstraint=eastwest;" vertex="1" parent="78961159f06e98e8-17">
          <mxGeometry y="52" width="250" height="26" as="geometry" />
        </mxCell>
        <mxCell id="78961159f06e98e8-23" value="- current_msg: Message" style="text;html=1;strokeColor=none;fillColor=none;align=left;verticalAlign=top;spacingLeft=4;spacingRight=4;whiteSpace=wrap;overflow=hidden;rotatable=0;points=[[0,0.5],[1,0.5]];portConstraint=eastwest;" parent="78961159f06e98e8-17" vertex="1">
          <mxGeometry y="78" width="250" height="26" as="geometry" />
        </mxCell>
        <mxCell id="78961159f06e98e8-19" value="" style="line;html=1;strokeWidth=1;fillColor=none;align=left;verticalAlign=middle;spacingTop=-1;spacingLeft=3;spacingRight=3;rotatable=0;labelPosition=right;points=[];portConstraint=eastwest;" parent="78961159f06e98e8-17" vertex="1">
          <mxGeometry y="104" width="250" height="8" as="geometry" />
        </mxCell>
        <mxCell id="78961159f06e98e8-27" value="+ msg_valid(): bool" style="text;html=1;strokeColor=none;fillColor=none;align=left;verticalAlign=top;spacingLeft=4;spacingRight=4;whiteSpace=wrap;overflow=hidden;rotatable=0;points=[[0,0.5],[1,0.5]];portConstraint=eastwest;" parent="78961159f06e98e8-17" vertex="1">
          <mxGeometry y="112" width="250" height="26" as="geometry" />
        </mxCell>
        <mxCell id="dgP6T1olhx-0nWLenfBv-9" value="+ get_current_msg(): Message" style="text;html=1;strokeColor=none;fillColor=none;align=left;verticalAlign=top;spacingLeft=4;spacingRight=4;whiteSpace=wrap;overflow=hidden;rotatable=0;points=[[0,0.5],[1,0.5]];portConstraint=eastwest;" vertex="1" parent="78961159f06e98e8-17">
          <mxGeometry y="138" width="250" height="26" as="geometry" />
        </mxCell>
        <mxCell id="dgP6T1olhx-0nWLenfBv-37" value="+ set_current_msg(Message):" style="text;html=1;strokeColor=none;fillColor=none;align=left;verticalAlign=top;spacingLeft=4;spacingRight=4;whiteSpace=wrap;overflow=hidden;rotatable=0;points=[[0,0.5],[1,0.5]];portConstraint=eastwest;" vertex="1" parent="78961159f06e98e8-17">
          <mxGeometry y="164" width="250" height="26" as="geometry" />
        </mxCell>
        <mxCell id="dgP6T1olhx-0nWLenfBv-34" value="+ to_string(): char[32]" style="text;html=1;strokeColor=none;fillColor=none;align=left;verticalAlign=top;spacingLeft=4;spacingRight=4;whiteSpace=wrap;overflow=hidden;rotatable=0;points=[[0,0.5],[1,0.5]];portConstraint=eastwest;" vertex="1" parent="78961159f06e98e8-17">
          <mxGeometry y="190" width="250" height="26" as="geometry" />
        </mxCell>
        <mxCell id="dgP6T1olhx-0nWLenfBv-92" value="+ to_dict(): BBStatus&amp;lt;&amp;gt;" style="text;html=1;strokeColor=none;fillColor=none;align=left;verticalAlign=top;spacingLeft=4;spacingRight=4;whiteSpace=wrap;overflow=hidden;rotatable=0;points=[[0,0.5],[1,0.5]];portConstraint=eastwest;" vertex="1" parent="78961159f06e98e8-17">
          <mxGeometry y="216" width="250" height="26" as="geometry" />
        </mxCell>
        <mxCell id="dgP6T1olhx-0nWLenfBv-78" style="edgeStyle=orthogonalEdgeStyle;rounded=0;orthogonalLoop=1;jettySize=auto;html=1;entryX=1.007;entryY=0.628;entryDx=0;entryDy=0;exitX=0;exitY=0.5;exitDx=0;exitDy=0;endArrow=diamondThin;endFill=1;endSize=15;entryPerimeter=0;" edge="1" parent="1" source="78961159f06e98e8-52" target="b94bc138ca980ef-1">
          <mxGeometry relative="1" as="geometry">
            <mxPoint x="460" y="268" as="sourcePoint" />
          </mxGeometry>
        </mxCell>
        <mxCell id="dgP6T1olhx-0nWLenfBv-80" value="1..n" style="edgeLabel;html=1;align=center;verticalAlign=middle;resizable=0;points=[];" vertex="1" connectable="0" parent="dgP6T1olhx-0nWLenfBv-78">
          <mxGeometry x="0.4651" y="3" relative="1" as="geometry">
            <mxPoint x="-12" y="-17" as="offset" />
          </mxGeometry>
        </mxCell>
        <mxCell id="dgP6T1olhx-0nWLenfBv-81" value="1" style="edgeLabel;html=1;align=center;verticalAlign=middle;resizable=0;points=[];" vertex="1" connectable="0" parent="dgP6T1olhx-0nWLenfBv-78">
          <mxGeometry x="-0.423" relative="1" as="geometry">
            <mxPoint x="25" y="-13" as="offset" />
          </mxGeometry>
        </mxCell>
        <mxCell id="78961159f06e98e8-43" value="BlackboardWorker" style="swimlane;html=1;fontStyle=1;align=center;verticalAlign=top;childLayout=stackLayout;horizontal=1;startSize=26;horizontalStack=0;resizeParent=1;resizeLast=0;collapsible=1;marginBottom=0;swimlaneFillColor=#ffffff;rounded=0;shadow=0;comic=0;labelBackgroundColor=none;strokeWidth=1;fillColor=none;fontFamily=Verdana;fontSize=12" parent="1" vertex="1">
          <mxGeometry x="470" y="229" width="270" height="294" as="geometry">
            <mxRectangle x="440" y="88" width="80" height="30" as="alternateBounds" />
          </mxGeometry>
        </mxCell>
        <mxCell id="78961159f06e98e8-44" value="- bbs: blackboard[32]" style="text;html=1;strokeColor=none;fillColor=none;align=left;verticalAlign=top;spacingLeft=4;spacingRight=4;whiteSpace=wrap;overflow=hidden;rotatable=0;points=[[0,0.5],[1,0.5]];portConstraint=eastwest;" parent="78961159f06e98e8-43" vertex="1">
          <mxGeometry y="26" width="270" height="26" as="geometry" />
        </mxCell>
        <mxCell id="78961159f06e98e8-51" value="" style="line;html=1;strokeWidth=1;fillColor=none;align=left;verticalAlign=middle;spacingTop=-1;spacingLeft=3;spacingRight=3;rotatable=0;labelPosition=right;points=[];portConstraint=eastwest;" parent="78961159f06e98e8-43" vertex="1">
          <mxGeometry y="52" width="270" height="8" as="geometry" />
        </mxCell>
        <mxCell id="78961159f06e98e8-52" value="+ create_bb(char[32], int32): bool" style="text;html=1;strokeColor=none;fillColor=none;align=left;verticalAlign=top;spacingLeft=4;spacingRight=4;whiteSpace=wrap;overflow=hidden;rotatable=0;points=[[0,0.5],[1,0.5]];portConstraint=eastwest;" parent="78961159f06e98e8-43" vertex="1">
          <mxGeometry y="60" width="270" height="26" as="geometry" />
        </mxCell>
        <mxCell id="dgP6T1olhx-0nWLenfBv-35" value="+ delete_bb(bb): bool" style="text;html=1;strokeColor=none;fillColor=none;align=left;verticalAlign=top;spacingLeft=4;spacingRight=4;whiteSpace=wrap;overflow=hidden;rotatable=0;points=[[0,0.5],[1,0.5]];portConstraint=eastwest;" vertex="1" parent="78961159f06e98e8-43">
          <mxGeometry y="86" width="270" height="26" as="geometry" />
        </mxCell>
        <mxCell id="b94bc138ca980ef-2" value="+ writing_bb(bb, string): bool" style="text;html=1;strokeColor=none;fillColor=none;align=left;verticalAlign=top;spacingLeft=4;spacingRight=4;whiteSpace=wrap;overflow=hidden;rotatable=0;points=[[0,0.5],[1,0.5]];portConstraint=eastwest;" parent="78961159f06e98e8-43" vertex="1">
          <mxGeometry y="112" width="270" height="26" as="geometry" />
        </mxCell>
        <mxCell id="dgP6T1olhx-0nWLenfBv-13" value="+ clear_bb(bb): bool" style="text;html=1;strokeColor=none;fillColor=none;align=left;verticalAlign=top;spacingLeft=4;spacingRight=4;whiteSpace=wrap;overflow=hidden;rotatable=0;points=[[0,0.5],[1,0.5]];portConstraint=eastwest;" vertex="1" parent="78961159f06e98e8-43">
          <mxGeometry y="138" width="270" height="26" as="geometry" />
        </mxCell>
        <mxCell id="dgP6T1olhx-0nWLenfBv-15" value="+ read_bb(bb): (char[255], bool)" style="text;html=1;strokeColor=none;fillColor=none;align=left;verticalAlign=top;spacingLeft=4;spacingRight=4;whiteSpace=wrap;overflow=hidden;rotatable=0;points=[[0,0.5],[1,0.5]];portConstraint=eastwest;" vertex="1" parent="78961159f06e98e8-43">
          <mxGeometry y="164" width="270" height="26" as="geometry" />
        </mxCell>
        <mxCell id="b94bc138ca980ef-3" value="+ bb_status(bb): BBStatus&amp;lt;&amp;gt;" style="text;html=1;strokeColor=none;fillColor=none;align=left;verticalAlign=top;spacingLeft=4;spacingRight=4;whiteSpace=wrap;overflow=hidden;rotatable=0;points=[[0,0.5],[1,0.5]];portConstraint=eastwest;" parent="78961159f06e98e8-43" vertex="1">
          <mxGeometry y="190" width="270" height="26" as="geometry" />
        </mxCell>
        <mxCell id="dgP6T1olhx-0nWLenfBv-19" value="+ get_bb(char[32]): blackboard" style="text;html=1;strokeColor=none;fillColor=none;align=left;verticalAlign=top;spacingLeft=4;spacingRight=4;whiteSpace=wrap;overflow=hidden;rotatable=0;points=[[0,0.5],[1,0.5]];portConstraint=eastwest;" vertex="1" parent="78961159f06e98e8-43">
          <mxGeometry y="216" width="270" height="26" as="geometry" />
        </mxCell>
        <mxCell id="dgP6T1olhx-0nWLenfBv-33" value="+ get_bbs(): string[32]" style="text;html=1;strokeColor=none;fillColor=none;align=left;verticalAlign=top;spacingLeft=4;spacingRight=4;whiteSpace=wrap;overflow=hidden;rotatable=0;points=[[0,0.5],[1,0.5]];portConstraint=eastwest;" vertex="1" parent="78961159f06e98e8-43">
          <mxGeometry y="242" width="270" height="26" as="geometry" />
        </mxCell>
        <mxCell id="dgP6T1olhx-0nWLenfBv-36" value="+ delete_bbs(): bool" style="text;html=1;strokeColor=none;fillColor=none;align=left;verticalAlign=top;spacingLeft=4;spacingRight=4;whiteSpace=wrap;overflow=hidden;rotatable=0;points=[[0,0.5],[1,0.5]];portConstraint=eastwest;" vertex="1" parent="78961159f06e98e8-43">
          <mxGeometry y="268" width="270" height="26" as="geometry" />
        </mxCell>
        <mxCell id="b94bc138ca980ef-1" value="&lt;p style=&quot;margin:0px;margin-top:4px;text-align:center;&quot;&gt;&lt;i&gt;&amp;lt;&amp;lt;Interface&amp;gt;&amp;gt;&lt;/i&gt;&lt;br&gt;&lt;b&gt;RequestHandler&lt;/b&gt;&lt;/p&gt;&lt;hr size=&quot;1&quot;&gt;&lt;p style=&quot;margin:0px;margin-left:4px;&quot;&gt;+ port: int8&lt;br&gt;+ host: string&lt;/p&gt;&lt;p style=&quot;margin:0px;margin-left:4px;&quot;&gt;+ worker_queue: BlackboardWorker[]&lt;/p&gt;&lt;p style=&quot;margin:0px;margin-left:4px;&quot;&gt;+ CREATE_BLACKBOARD: string&lt;/p&gt;&lt;p style=&quot;margin:0px;margin-left:4px;&quot;&gt;+ DELETE_BLACKBOARD: string&lt;/p&gt;&lt;p style=&quot;margin:0px;margin-left:4px;&quot;&gt;+ WRITING_BLACKBOARD: string&lt;/p&gt;&lt;p style=&quot;margin:0px;margin-left:4px;&quot;&gt;+ CLEAR_BLACKBOARD: string&lt;/p&gt;&lt;p style=&quot;margin:0px;margin-left:4px;&quot;&gt;+ READ_BLACKBOARD: string&lt;/p&gt;&lt;p style=&quot;margin:0px;margin-left:4px;&quot;&gt;+ GET_BLACKBOARD_STATUS: string&lt;/p&gt;&lt;p style=&quot;margin:0px;margin-left:4px;&quot;&gt;+ LIST_BLACKBOARDS: string&lt;br&gt;&lt;/p&gt;&lt;p style=&quot;margin:0px;margin-left:4px;&quot;&gt;+ DELETE_ALL_BLACKBOARDS: string&lt;/p&gt;&lt;hr size=&quot;1&quot;&gt;&lt;p style=&quot;margin:0px;margin-left:4px;&quot;&gt;- request_listener():&amp;nbsp;&lt;span style=&quot;text-wrap: wrap;&quot;&gt;ResponseMessage&lt;/span&gt;&lt;br&gt;- send_respond(int8, string): bool&lt;/p&gt;&lt;p style=&quot;margin:0px;margin-left:4px;&quot;&gt;- run_request(BlackboardWorker)&lt;/p&gt;" style="verticalAlign=top;align=left;overflow=fill;fontSize=12;fontFamily=Helvetica;html=1;rounded=0;shadow=0;comic=0;labelBackgroundColor=none;strokeWidth=1" parent="1" vertex="1">
          <mxGeometry x="120" y="132" width="230" height="272" as="geometry" />
        </mxCell>
        <mxCell id="dgP6T1olhx-0nWLenfBv-3" value="" style="rounded=0;orthogonalLoop=1;jettySize=auto;html=1;endArrow=halfCircle;endFill=0;endSize=10;strokeWidth=1;sketch=0;exitX=0.001;exitY=0.118;exitDx=0;exitDy=0;exitPerimeter=0;" edge="1" parent="1" source="b94bc138ca980ef-1">
          <mxGeometry relative="1" as="geometry">
            <mxPoint x="116" y="164" as="sourcePoint" />
            <mxPoint x="56" y="164" as="targetPoint" />
          </mxGeometry>
        </mxCell>
        <mxCell id="dgP6T1olhx-0nWLenfBv-4" value="" style="rounded=0;orthogonalLoop=1;jettySize=auto;html=1;endArrow=oval;endFill=0;sketch=0;sourcePerimeterSpacing=0;targetPerimeterSpacing=0;endSize=19;exitX=0.5;exitY=1;exitDx=0;exitDy=0;" edge="1" parent="1" source="dgP6T1olhx-0nWLenfBv-66">
          <mxGeometry relative="1" as="geometry">
            <mxPoint x="20" y="164" as="sourcePoint" />
            <mxPoint x="55" y="164" as="targetPoint" />
          </mxGeometry>
        </mxCell>
        <mxCell id="dgP6T1olhx-0nWLenfBv-17" style="edgeStyle=orthogonalEdgeStyle;rounded=1;orthogonalLoop=1;jettySize=auto;html=1;dashed=1;endArrow=none;endFill=0;curved=0;" edge="1" parent="1" source="dgP6T1olhx-0nWLenfBv-16" target="dgP6T1olhx-0nWLenfBv-15">
          <mxGeometry relative="1" as="geometry" />
        </mxCell>
        <mxCell id="dgP6T1olhx-0nWLenfBv-16" value="returns message and validity" style="shape=note;size=20;whiteSpace=wrap;html=1;" vertex="1" parent="1">
          <mxGeometry x="740" y="598" width="100" height="100" as="geometry" />
        </mxCell>
        <mxCell id="dgP6T1olhx-0nWLenfBv-29" value="&lt;p style=&quot;margin:0px;margin-top:4px;text-align:center;&quot;&gt;&lt;i&gt;&amp;lt;&amp;lt;Dictionary&amp;gt;&amp;gt;&lt;/i&gt;&lt;br&gt;&lt;b&gt;BBStatus&lt;/b&gt;&lt;/p&gt;&lt;hr size=&quot;1&quot;&gt;&lt;p style=&quot;margin:0px;margin-left:4px;&quot;&gt;+ bb_empty: bool&lt;br&gt;+ msg_time: unix_timestamp&lt;/p&gt;&lt;p style=&quot;margin:0px;margin-left:4px;&quot;&gt;+ msg_valid: bool&lt;/p&gt;" style="verticalAlign=top;align=left;overflow=fill;fontSize=12;fontFamily=Helvetica;html=1;rounded=0;shadow=0;comic=0;labelBackgroundColor=none;strokeWidth=1" vertex="1" parent="1">
          <mxGeometry x="530" y="44" width="160" height="100" as="geometry" />
        </mxCell>
        <mxCell id="dgP6T1olhx-0nWLenfBv-53" style="edgeStyle=orthogonalEdgeStyle;rounded=0;orthogonalLoop=1;jettySize=auto;html=1;entryX=0.5;entryY=1;entryDx=0;entryDy=0;endArrow=diamondThin;endFill=1;endSize=15;" edge="1" parent="1" source="dgP6T1olhx-0nWLenfBv-42" target="78961159f06e98e8-17">
          <mxGeometry relative="1" as="geometry">
            <mxPoint x="1008.19" y="459" as="targetPoint" />
          </mxGeometry>
        </mxCell>
        <mxCell id="dgP6T1olhx-0nWLenfBv-101" value="1" style="edgeLabel;html=1;align=center;verticalAlign=middle;resizable=0;points=[];" vertex="1" connectable="0" parent="dgP6T1olhx-0nWLenfBv-53">
          <mxGeometry x="-0.6935" y="-1" relative="1" as="geometry">
            <mxPoint x="14" as="offset" />
          </mxGeometry>
        </mxCell>
        <mxCell id="dgP6T1olhx-0nWLenfBv-102" value="1" style="edgeLabel;html=1;align=center;verticalAlign=middle;resizable=0;points=[];" vertex="1" connectable="0" parent="dgP6T1olhx-0nWLenfBv-53">
          <mxGeometry x="0.496" y="-1" relative="1" as="geometry">
            <mxPoint x="14" as="offset" />
          </mxGeometry>
        </mxCell>
        <mxCell id="dgP6T1olhx-0nWLenfBv-75" style="edgeStyle=orthogonalEdgeStyle;rounded=1;orthogonalLoop=1;jettySize=auto;html=1;entryX=1;entryY=0.5;entryDx=0;entryDy=0;exitX=0.25;exitY=0;exitDx=0;exitDy=0;curved=0;endSize=10;endArrow=open;endFill=0;" edge="1" parent="1" source="dgP6T1olhx-0nWLenfBv-42" target="dgP6T1olhx-0nWLenfBv-13">
          <mxGeometry relative="1" as="geometry" />
        </mxCell>
        <mxCell id="dgP6T1olhx-0nWLenfBv-103" value="1..n" style="edgeLabel;html=1;align=center;verticalAlign=middle;resizable=0;points=[];" vertex="1" connectable="0" parent="dgP6T1olhx-0nWLenfBv-75">
          <mxGeometry x="0.7412" y="-1" relative="1" as="geometry">
            <mxPoint x="-15" y="-15" as="offset" />
          </mxGeometry>
        </mxCell>
        <mxCell id="dgP6T1olhx-0nWLenfBv-104" value="1" style="edgeLabel;html=1;align=center;verticalAlign=middle;resizable=0;points=[];" vertex="1" connectable="0" parent="dgP6T1olhx-0nWLenfBv-75">
          <mxGeometry x="-0.9432" y="1" relative="1" as="geometry">
            <mxPoint x="9" y="-2" as="offset" />
          </mxGeometry>
        </mxCell>
        <mxCell id="dgP6T1olhx-0nWLenfBv-42" value="Message" style="swimlane;html=1;fontStyle=1;align=center;verticalAlign=top;childLayout=stackLayout;horizontal=1;startSize=26;horizontalStack=0;resizeParent=1;resizeLast=0;collapsible=1;marginBottom=0;swimlaneFillColor=#ffffff;rounded=0;shadow=0;comic=0;labelBackgroundColor=none;strokeWidth=1;fillColor=none;fontFamily=Verdana;fontSize=12" vertex="1" parent="1">
          <mxGeometry x="828.19" y="323" width="250" height="140" as="geometry" />
        </mxCell>
        <mxCell id="dgP6T1olhx-0nWLenfBv-45" value="- time: unix_timestamp" style="text;html=1;strokeColor=none;fillColor=none;align=left;verticalAlign=top;spacingLeft=4;spacingRight=4;whiteSpace=wrap;overflow=hidden;rotatable=0;points=[[0,0.5],[1,0.5]];portConstraint=eastwest;" vertex="1" parent="dgP6T1olhx-0nWLenfBv-42">
          <mxGeometry y="26" width="250" height="26" as="geometry" />
        </mxCell>
        <mxCell id="dgP6T1olhx-0nWLenfBv-46" value="- text: char[255]" style="text;html=1;strokeColor=none;fillColor=none;align=left;verticalAlign=top;spacingLeft=4;spacingRight=4;whiteSpace=wrap;overflow=hidden;rotatable=0;points=[[0,0.5],[1,0.5]];portConstraint=eastwest;" vertex="1" parent="dgP6T1olhx-0nWLenfBv-42">
          <mxGeometry y="52" width="250" height="26" as="geometry" />
        </mxCell>
        <mxCell id="dgP6T1olhx-0nWLenfBv-47" value="" style="line;html=1;strokeWidth=1;fillColor=none;align=left;verticalAlign=middle;spacingTop=-1;spacingLeft=3;spacingRight=3;rotatable=0;labelPosition=right;points=[];portConstraint=eastwest;" vertex="1" parent="dgP6T1olhx-0nWLenfBv-42">
          <mxGeometry y="78" width="250" height="8" as="geometry" />
        </mxCell>
        <mxCell id="dgP6T1olhx-0nWLenfBv-54" value="+ get_time(): unix_timestamp" style="text;html=1;strokeColor=none;fillColor=none;align=left;verticalAlign=top;spacingLeft=4;spacingRight=4;whiteSpace=wrap;overflow=hidden;rotatable=0;points=[[0,0.5],[1,0.5]];portConstraint=eastwest;" vertex="1" parent="dgP6T1olhx-0nWLenfBv-42">
          <mxGeometry y="86" width="250" height="26" as="geometry" />
        </mxCell>
        <mxCell id="dgP6T1olhx-0nWLenfBv-51" value="+ to_string(): char[255]" style="text;html=1;strokeColor=none;fillColor=none;align=left;verticalAlign=top;spacingLeft=4;spacingRight=4;whiteSpace=wrap;overflow=hidden;rotatable=0;points=[[0,0.5],[1,0.5]];portConstraint=eastwest;" vertex="1" parent="dgP6T1olhx-0nWLenfBv-42">
          <mxGeometry y="112" width="250" height="26" as="geometry" />
        </mxCell>
        <mxCell id="dgP6T1olhx-0nWLenfBv-59" value="response with HTTP Code and body" style="shape=note;size=20;whiteSpace=wrap;html=1;" vertex="1" parent="1">
          <mxGeometry y="444" width="100" height="90" as="geometry" />
        </mxCell>
        <mxCell id="dgP6T1olhx-0nWLenfBv-60" style="edgeStyle=orthogonalEdgeStyle;rounded=0;orthogonalLoop=1;jettySize=auto;html=1;entryX=0;entryY=0.887;entryDx=0;entryDy=0;entryPerimeter=0;dashed=1;endArrow=none;endFill=0;exitX=0;exitY=0;exitDx=40;exitDy=0;exitPerimeter=0;" edge="1" parent="1" source="dgP6T1olhx-0nWLenfBv-59" target="b94bc138ca980ef-1">
          <mxGeometry relative="1" as="geometry" />
        </mxCell>
        <mxCell id="dgP6T1olhx-0nWLenfBv-62" value="" style="rounded=0;orthogonalLoop=1;jettySize=auto;html=1;endArrow=halfCircle;endFill=0;endSize=10;strokeWidth=1;sketch=0;exitX=0.5;exitY=1;exitDx=0;exitDy=0;" edge="1" parent="1" source="235556782a83e6d0-1">
          <mxGeometry relative="1" as="geometry">
            <mxPoint x="260" y="630" as="sourcePoint" />
            <mxPoint x="235" y="604" as="targetPoint" />
          </mxGeometry>
        </mxCell>
        <mxCell id="dgP6T1olhx-0nWLenfBv-63" value="" style="rounded=0;orthogonalLoop=1;jettySize=auto;html=1;endArrow=oval;endFill=0;sketch=0;sourcePerimeterSpacing=0;targetPerimeterSpacing=0;endSize=19;" edge="1" parent="1">
          <mxGeometry relative="1" as="geometry">
            <mxPoint x="234.55" y="648" as="sourcePoint" />
            <mxPoint x="235" y="604" as="targetPoint" />
          </mxGeometry>
        </mxCell>
        <mxCell id="dgP6T1olhx-0nWLenfBv-64" value="«interface»&lt;br&gt;&lt;b&gt;Filesystem&lt;/b&gt;" style="html=1;whiteSpace=wrap;" vertex="1" parent="1">
          <mxGeometry x="180" y="648" width="110" height="50" as="geometry" />
        </mxCell>
        <mxCell id="dgP6T1olhx-0nWLenfBv-66" value="«interface»&lt;br&gt;&lt;b&gt;Client&lt;/b&gt;" style="html=1;whiteSpace=wrap;" vertex="1" parent="1">
          <mxGeometry y="44" width="110" height="50" as="geometry" />
        </mxCell>
        <mxCell id="dgP6T1olhx-0nWLenfBv-73" style="edgeStyle=orthogonalEdgeStyle;rounded=1;orthogonalLoop=1;jettySize=auto;html=1;exitX=0.25;exitY=0;exitDx=0;exitDy=0;entryX=1;entryY=0.5;entryDx=0;entryDy=0;curved=0;endArrow=open;endFill=0;endSize=10;" edge="1" parent="1" source="dgP6T1olhx-0nWLenfBv-67" target="235556782a83e6d0-2">
          <mxGeometry relative="1" as="geometry" />
        </mxCell>
        <mxCell id="dgP6T1olhx-0nWLenfBv-84" value="1..n" style="edgeLabel;html=1;align=center;verticalAlign=middle;resizable=0;points=[];" vertex="1" connectable="0" parent="dgP6T1olhx-0nWLenfBv-73">
          <mxGeometry x="0.4504" y="2" relative="1" as="geometry">
            <mxPoint x="-9" y="-13" as="offset" />
          </mxGeometry>
        </mxCell>
        <mxCell id="dgP6T1olhx-0nWLenfBv-86" value="1" style="edgeLabel;html=1;align=center;verticalAlign=middle;resizable=0;points=[];" vertex="1" connectable="0" parent="dgP6T1olhx-0nWLenfBv-73">
          <mxGeometry x="-0.7861" y="1" relative="1" as="geometry">
            <mxPoint x="-7" y="3" as="offset" />
          </mxGeometry>
        </mxCell>
        <mxCell id="dgP6T1olhx-0nWLenfBv-74" style="edgeStyle=orthogonalEdgeStyle;rounded=1;orthogonalLoop=1;jettySize=auto;html=1;exitX=0.5;exitY=0;exitDx=0;exitDy=0;entryX=1;entryY=0.75;entryDx=0;entryDy=0;endSize=10;curved=0;endArrow=open;endFill=0;" edge="1" parent="1" source="dgP6T1olhx-0nWLenfBv-67" target="b94bc138ca980ef-1">
          <mxGeometry relative="1" as="geometry" />
        </mxCell>
        <mxCell id="dgP6T1olhx-0nWLenfBv-82" value="1..n" style="edgeLabel;html=1;align=center;verticalAlign=middle;resizable=0;points=[];" vertex="1" connectable="0" parent="dgP6T1olhx-0nWLenfBv-74">
          <mxGeometry x="0.7487" y="2" relative="1" as="geometry">
            <mxPoint x="-18" y="-11" as="offset" />
          </mxGeometry>
        </mxCell>
        <mxCell id="dgP6T1olhx-0nWLenfBv-83" value="1" style="edgeLabel;html=1;align=center;verticalAlign=middle;resizable=0;points=[];" vertex="1" connectable="0" parent="dgP6T1olhx-0nWLenfBv-74">
          <mxGeometry x="-0.8774" y="-2" relative="1" as="geometry">
            <mxPoint x="-7" y="10" as="offset" />
          </mxGeometry>
        </mxCell>
        <mxCell id="dgP6T1olhx-0nWLenfBv-67" value="&lt;p style=&quot;margin:0px;margin-top:4px;text-align:center;&quot;&gt;&lt;i&gt;&amp;lt;&amp;lt;Enumaration&amp;gt;&amp;gt;&lt;/i&gt;&lt;br&gt;&lt;b&gt;ResponseMessage&lt;/b&gt;&lt;/p&gt;&lt;hr size=&quot;1&quot;&gt;&lt;p style=&quot;margin:0px;margin-left:4px;&quot;&gt;+ BB_EXISTS_ALREADY&lt;br&gt;+ BB_NOT_FOUND&lt;/p&gt;&lt;p style=&quot;margin:0px;margin-left:4px;&quot;&gt;&lt;span style=&quot;background-color: initial;&quot;&gt;+ BB_IS_EMPTY&lt;/span&gt;&lt;/p&gt;&lt;p style=&quot;margin:0px;margin-left:4px;&quot;&gt;&lt;span style=&quot;background-color: initial;&quot;&gt;+ SUCCESS&lt;/span&gt;&lt;/p&gt;&lt;p style=&quot;margin:0px;margin-left:4px;&quot;&gt;&lt;span style=&quot;background-color: initial;&quot;&gt;+ INTERNAL_ERROR&lt;/span&gt;&lt;/p&gt;" style="verticalAlign=top;align=left;overflow=fill;fontSize=12;fontFamily=Helvetica;html=1;rounded=0;shadow=0;comic=0;labelBackgroundColor=none;strokeWidth=1" vertex="1" parent="1">
          <mxGeometry x="360" y="552" width="150" height="146" as="geometry" />
        </mxCell>
        <mxCell id="dgP6T1olhx-0nWLenfBv-76" style="edgeStyle=orthogonalEdgeStyle;rounded=1;orthogonalLoop=1;jettySize=auto;html=1;exitX=0;exitY=0.5;exitDx=0;exitDy=0;entryX=1;entryY=0.5;entryDx=0;entryDy=0;curved=0;endSize=10;endArrow=open;endFill=0;" edge="1" parent="1" source="dgP6T1olhx-0nWLenfBv-9" target="78961159f06e98e8-44">
          <mxGeometry relative="1" as="geometry" />
        </mxCell>
        <mxCell id="dgP6T1olhx-0nWLenfBv-96" value="1..32" style="edgeLabel;html=1;align=center;verticalAlign=middle;resizable=0;points=[];" vertex="1" connectable="0" parent="dgP6T1olhx-0nWLenfBv-76">
          <mxGeometry x="0.7961" y="2" relative="1" as="geometry">
            <mxPoint x="9" y="-16" as="offset" />
          </mxGeometry>
        </mxCell>
        <mxCell id="dgP6T1olhx-0nWLenfBv-98" value="1" style="edgeLabel;html=1;align=center;verticalAlign=middle;resizable=0;points=[];" vertex="1" connectable="0" parent="dgP6T1olhx-0nWLenfBv-76">
          <mxGeometry x="-0.8459" y="1" relative="1" as="geometry">
            <mxPoint x="6" y="-10" as="offset" />
          </mxGeometry>
        </mxCell>
        <mxCell id="dgP6T1olhx-0nWLenfBv-93" style="edgeStyle=orthogonalEdgeStyle;rounded=0;orthogonalLoop=1;jettySize=auto;html=1;entryX=-0.004;entryY=0.88;entryDx=0;entryDy=0;entryPerimeter=0;endArrow=none;endFill=0;" edge="1" parent="1" source="dgP6T1olhx-0nWLenfBv-29" target="dgP6T1olhx-0nWLenfBv-41">
          <mxGeometry relative="1" as="geometry" />
        </mxCell>
        <mxCell id="dgP6T1olhx-0nWLenfBv-94" value="1" style="edgeLabel;html=1;align=center;verticalAlign=middle;resizable=0;points=[];" vertex="1" connectable="0" parent="dgP6T1olhx-0nWLenfBv-93">
          <mxGeometry x="-0.7373" y="-2" relative="1" as="geometry">
            <mxPoint x="-11" y="-11" as="offset" />
          </mxGeometry>
        </mxCell>
        <mxCell id="dgP6T1olhx-0nWLenfBv-95" value="1" style="edgeLabel;html=1;align=center;verticalAlign=middle;resizable=0;points=[];" vertex="1" connectable="0" parent="dgP6T1olhx-0nWLenfBv-93">
          <mxGeometry x="0.7983" relative="1" as="geometry">
            <mxPoint x="7" y="-11" as="offset" />
          </mxGeometry>
        </mxCell>
        <mxCell id="dgP6T1olhx-0nWLenfBv-100" style="edgeStyle=orthogonalEdgeStyle;rounded=1;orthogonalLoop=1;jettySize=auto;html=1;entryX=0;entryY=0.5;entryDx=0;entryDy=0;dashed=1;endArrow=none;endFill=0;curved=0;" edge="1" parent="1" source="dgP6T1olhx-0nWLenfBv-99" target="78961159f06e98e8-44">
          <mxGeometry relative="1" as="geometry" />
        </mxCell>
        <mxCell id="dgP6T1olhx-0nWLenfBv-99" value="static field to be shared between all runners" style="shape=note;size=20;whiteSpace=wrap;html=1;" vertex="1" parent="1">
          <mxGeometry x="385" y="84" width="100" height="100" as="geometry" />
        </mxCell>
        <mxCell id="dgP6T1olhx-0nWLenfBv-106" style="edgeStyle=orthogonalEdgeStyle;rounded=1;orthogonalLoop=1;jettySize=auto;html=1;entryX=1;entryY=0.5;entryDx=0;entryDy=0;dashed=1;endArrow=none;endFill=0;curved=0;" edge="1" parent="1" source="dgP6T1olhx-0nWLenfBv-105" target="dgP6T1olhx-0nWLenfBv-45">
          <mxGeometry relative="1" as="geometry">
            <Array as="points">
              <mxPoint x="1028.19" y="533" />
              <mxPoint x="1098.19" y="533" />
              <mxPoint x="1098.19" y="362" />
            </Array>
          </mxGeometry>
        </mxCell>
        <mxCell id="dgP6T1olhx-0nWLenfBv-107" style="edgeStyle=orthogonalEdgeStyle;rounded=1;orthogonalLoop=1;jettySize=auto;html=1;exitX=0.5;exitY=0;exitDx=0;exitDy=0;exitPerimeter=0;entryX=1;entryY=0.5;entryDx=0;entryDy=0;endArrow=none;endFill=0;dashed=1;curved=0;" edge="1" parent="1" source="dgP6T1olhx-0nWLenfBv-105" target="dgP6T1olhx-0nWLenfBv-8">
          <mxGeometry relative="1" as="geometry">
            <Array as="points">
              <mxPoint x="1028.19" y="533" />
              <mxPoint x="1098.19" y="533" />
              <mxPoint x="1098.19" y="58" />
            </Array>
          </mxGeometry>
        </mxCell>
        <mxCell id="dgP6T1olhx-0nWLenfBv-105" value="All privat fields without a public setter can be set only during creation e.g with a construcotr&amp;nbsp;" style="shape=note;size=20;whiteSpace=wrap;html=1;spacing=4;" vertex="1" parent="1">
          <mxGeometry x="978.19" y="563" width="100" height="130" as="geometry" />
        </mxCell>
      </root>
    </mxGraphModel>
  </diagram>
</mxfile>
